#N canvas 203 168 851 524 12;
#N canvas 708 392 450 300 mixer 1;
#X obj 190 29 inlet;
#X obj 195 214 outlet~;
#X msg 79 165 track1;
#X msg 162 164 track2;
#X restore 344 108 pd mixer;
#X msg 67 42 \; pd-mixer obj 1 1 r hello2;
#X obj 136 436 s pd-mixer;
#X msg 316 395 cut;
#X msg 154 193 find track1 0;
#X msg 200 223 find track2 0;
#X msg 236 255 findagain;
#X msg 267 288 findparent;
#X msg 284 329 key 0;
#X msg 295 364 find r 2;
#X msg 130 163 click 2 2;
#X msg 94 126 editmode 1;
#X msg 42 92 mouse 1 1 0 0;
#X msg 590 158 56;
#X msg 600 101 bang;
#X msg 543 160 12;
#X obj 600 352 bng 15 250 50 0 empty empty empty 17 7 0 10 #fcfcfc
#000000 #000000;
#X obj 676 354 bng 15 250 50 0 empty empty empty 17 7 0 10 #fcfcfc
#000000 #000000;
#X obj 591 308 route 1;
#X obj 591 262 pack i i i;
#X obj 586 374 unpack i i;
#X floatatom 588 423 5 0 0 0 - - - 0;
#X floatatom 643 422 5 0 0 0 - - - 0;
#X floatatom 649 159 5 0 0 0 - - - 0;
#X msg 708 78 1;
#X msg 658 78 2;
#X msg 687 244 1;
#X msg 691 273 2;
#X msg 728 368 0;
#X connect 3 0 2 0;
#X connect 4 0 2 0;
#X connect 5 0 2 0;
#X connect 6 0 2 0;
#X connect 7 0 2 0;
#X connect 8 0 2 0;
#X connect 9 0 2 0;
#X connect 10 0 2 0;
#X connect 11 0 2 0;
#X connect 12 0 2 0;
#X connect 13 0 19 2;
#X connect 14 0 13 0;
#X connect 14 0 15 0;
#X connect 14 0 23 0;
#X connect 15 0 19 1;
#X connect 18 0 16 0;
#X connect 18 0 20 0;
#X connect 18 1 17 0;
#X connect 19 0 18 0;
#X connect 20 0 21 0;
#X connect 20 1 22 0;
#X connect 23 0 19 0;
#X connect 24 0 23 0;
#X connect 25 0 23 0;
#X connect 26 0 18 1;
#X connect 27 0 18 1;
#X connect 28 0 22 0;
#X connect 28 0 21 0;
