#N canvas 203 168 761 763 12;
#N canvas 1118 215 549 435 mixer 1;
#X obj 231 17 inlet;
#X obj 237 308 outlet~;
#X msg 37 132 track1;
#X msg 143 132 track2;
#X obj 1 1 r hello2;
#X restore 620 32 pd mixer;
#X msg 49 37 \; pd-mixer obj 1 1 r hello2;
#X obj 107 718 s pd-mixer;
#X msg 689 667 cut;
#X msg 527 465 find track1 0;
#X msg 573 495 find track2 0;
#X msg 609 527 findagain;
#X msg 640 560 findparent;
#X msg 657 601 key 0;
#X msg 668 636 find r 2;
#X msg 503 435 click 2 2;
#X msg 467 398 editmode 1;
#X msg 415 364 mouse 1 1 0 0;
#X msg 390 327 mouseup 1 1 0;
#X msg 317 214 texteditor 123;
#X msg 296 185 paste;
#X msg 369 283 key 1 Enter 0;
#X msg 342 247 key 1 97 0;
#X msg 508 250 key 1 100 0;
#X connect 3 0 2 0;
#X connect 4 0 2 0;
#X connect 5 0 2 0;
#X connect 6 0 2 0;
#X connect 7 0 2 0;
#X connect 8 0 2 0;
#X connect 9 0 2 0;
#X connect 10 0 2 0;
#X connect 11 0 2 0;
#X connect 12 0 2 0;
#X connect 13 0 2 0;
#X connect 14 0 2 0;
#X connect 15 0 2 0;
#X connect 16 0 2 0;
#X connect 17 0 2 0;
