#N canvas 1014 384 353 367 12;
#X obj 156 168 route 1;
#X obj 85 115 pack i i i;
#X obj 151 234 unpack i i;
#X obj 84 38 notein;
#X obj 202 37 inlet;
#X obj 151 300 outlet;
#X obj 218 299 outlet;
#X connect 0 0 2 0;
#X connect 1 0 0 0;
#X connect 2 0 5 0;
#X connect 2 1 6 0;
#X connect 3 0 1 0;
#X connect 3 1 1 1;
#X connect 3 2 1 2;
#X connect 4 0 0 1;
